<svg width="42" height="42" viewBox="0 0 42 42" fill="none" xmlns="http://www.w3.org/2000/svg">
<path d="M39.375 21C39.375 31.143 31.1522 39.375 21 39.375C10.8478 39.375 2.625 31.143 2.625 21C2.625 10.8478 10.8478 2.625 21 2.625C31.1522 2.625 39.375 10.8478 39.375 21Z" fill="#283544"/>
<path d="M29.6128 16.3503C29.5125 16.4088 27.1255 17.6433 27.1255 20.3803C27.238 23.5017 30.1378 24.5964 30.1875 24.5964C30.1378 24.6549 29.7497 26.0876 28.6003 27.5895C27.688 28.8832 26.6755 30.1875 25.138 30.1875C23.6755 30.1875 23.1505 29.3253 21.463 29.3253C19.6508 29.3253 19.138 30.1875 17.7505 30.1875C16.213 30.1875 15.1255 28.8133 14.1635 27.5317C12.9138 25.8544 11.8516 23.2222 11.8141 20.6948C11.7888 19.3555 12.0644 18.039 12.7638 16.9208C13.751 15.3597 15.5135 14.3 17.4383 14.2651C18.913 14.2187 20.2255 15.2086 21.1255 15.2086C21.988 15.2086 23.6005 14.2651 25.425 14.2651C26.2125 14.2658 28.3125 14.4869 29.6128 16.3503ZM21.0008 13.9977C20.7383 12.7746 21.463 11.5516 22.138 10.7714C23.0005 9.82789 24.3628 9.1875 25.5375 9.1875C25.6125 10.4106 25.1372 11.6101 24.2878 12.4837C23.5255 13.4272 22.213 14.1374 21.0008 13.9977Z" fill="white"/>
</svg>
