<svg width="21" height="21" viewBox="0 0 21 21" fill="none" xmlns="http://www.w3.org/2000/svg">
<g id="vuesax/outline/arrow-right">
<g id="arrow-right">
<path id="Vector" d="M13.0751 3.27523C13.2334 3.27523 13.3917 3.33356 13.5167 3.45856C13.7584 3.70023 13.7584 4.10023 13.5167 4.3419L8.08341 9.77523C7.68341 10.1752 7.68341 10.8252 8.08341 11.2252L13.5167 16.6586C13.7584 16.9002 13.7584 17.3002 13.5167 17.5419C13.2751 17.7836 12.8751 17.7836 12.6334 17.5419L7.20008 12.1086C6.77508 11.6836 6.53341 11.1086 6.53341 10.5002C6.53341 9.89189 6.76675 9.31689 7.20008 8.89189L12.6334 3.45856C12.7584 3.34189 12.9167 3.27523 13.0751 3.27523Z" fill="#09B5AF"/>
</g>
</g>
</svg>
