<svg width="32" height="33" viewBox="0 0 32 33" fill="none" xmlns="http://www.w3.org/2000/svg">
<circle cx="16" cy="16.5" r="16" fill="#EFEFEF"/>
<path d="M15.9999 17.0999C13.4639 17.0999 11.3999 15.0359 11.3999 12.4999C11.3999 9.9639 13.4639 7.8999 15.9999 7.8999C18.5359 7.8999 20.5999 9.9639 20.5999 12.4999C20.5999 15.0359 18.5359 17.0999 15.9999 17.0999ZM15.9999 9.0999C14.1279 9.0999 12.5999 10.6279 12.5999 12.4999C12.5999 14.3719 14.1279 15.8999 15.9999 15.8999C17.8719 15.8999 19.3999 14.3719 19.3999 12.4999C19.3999 10.6279 17.8719 9.0999 15.9999 9.0999Z" fill="#0A0A0A"/>
<path d="M22.8718 25.0998C22.5438 25.0998 22.2718 24.8278 22.2718 24.4998C22.2718 21.7398 19.4558 19.4998 15.9998 19.4998C12.5438 19.4998 9.72783 21.7398 9.72783 24.4998C9.72783 24.8278 9.45583 25.0998 9.12783 25.0998C8.79983 25.0998 8.52783 24.8278 8.52783 24.4998C8.52783 21.0838 11.8798 18.2998 15.9998 18.2998C20.1198 18.2998 23.4718 21.0838 23.4718 24.4998C23.4718 24.8278 23.1998 25.0998 22.8718 25.0998Z" fill="#0A0A0A"/>
</svg>
