<svg width="42" height="42" viewBox="0 0 42 42" fill="none" xmlns="http://www.w3.org/2000/svg">
<path d="M39.3769 21.4081C39.3769 19.8973 39.2518 18.7948 38.9811 17.6515H21.377V24.4706H31.7102C31.5019 26.1652 30.3769 28.7173 27.8769 30.4322L27.8419 30.6605L33.408 34.8863L33.7936 34.924C37.3352 31.7185 39.3769 27.0023 39.3769 21.4081Z" fill="#4285F4"/>
<path d="M21.376 39.375C26.4384 39.375 30.6883 37.7416 33.7926 34.9241L27.8759 30.4323C26.2926 31.5144 24.1675 32.2698 21.376 32.2698C16.4177 32.2698 12.2094 29.0645 10.7093 24.634L10.4894 24.6523L4.70167 29.042L4.62598 29.2482C7.70927 35.2507 14.0426 39.375 21.376 39.375Z" fill="#34A853"/>
<path d="M10.7102 24.6341C10.3144 23.4908 10.0853 22.2657 10.0853 20.9999C10.0853 19.734 10.3144 18.509 10.6894 17.3657L10.6789 17.1222L4.81864 12.6621L4.6269 12.7515C3.35613 15.2424 2.62695 18.0395 2.62695 20.9999C2.62695 23.9603 3.35613 26.7573 4.6269 29.2482L10.7102 24.6341Z" fill="#FBBC05"/>
<path d="M21.3761 9.72995C24.8968 9.72995 27.2718 11.2204 28.626 12.4659L33.9177 7.4025C30.6678 4.44209 26.4385 2.625 21.3761 2.625C14.0426 2.625 7.70928 6.74913 4.62598 12.7516L10.6885 17.3658C12.2094 12.9354 16.4177 9.72995 21.3761 9.72995Z" fill="#EB4335"/>
</svg>
