<svg width="48" height="48" viewBox="0 0 48 48" fill="none" xmlns="http://www.w3.org/2000/svg">
<circle cx="24" cy="24" r="24" fill="#E6F8F7"/>
<path d="M20.91 32.67C20.72 32.67 20.53 32.6 20.38 32.45C20.09 32.16 20.09 31.68 20.38 31.39L26.9 24.87C27.38 24.39 27.38 23.61 26.9 23.13L20.38 16.61C20.09 16.32 20.09 15.84 20.38 15.55C20.67 15.26 21.15 15.26 21.44 15.55L27.96 22.07C28.47 22.58 28.76 23.27 28.76 24C28.76 24.73 28.48 25.42 27.96 25.93L21.44 32.45C21.29 32.59 21.1 32.67 20.91 32.67Z" fill="#313131"/>
</svg>
