<svg width="48" height="48" viewBox="0 0 48 48" fill="none" xmlns="http://www.w3.org/2000/svg">
<circle cx="24" cy="24" r="24" fill="#E6F8F7"/>
<rect width="24" height="24" transform="translate(12 12)" fill="#E6F8F7"/>
<path d="M27.0003 32.67C26.8103 32.67 26.6203 32.6 26.4703 32.45L19.9503 25.93C18.8903 24.87 18.8903 23.13 19.9503 22.07L26.4703 15.55C26.7603 15.26 27.2403 15.26 27.5303 15.55C27.8203 15.84 27.8203 16.32 27.5303 16.61L21.0103 23.13C20.5303 23.61 20.5303 24.39 21.0103 24.87L27.5303 31.39C27.8203 31.68 27.8203 32.16 27.5303 32.45C27.3803 32.59 27.1903 32.67 27.0003 32.67Z" fill="#313131"/>
</svg>
