<svg width="48" height="48" viewBox="0 0 48 48" fill="none" xmlns="http://www.w3.org/2000/svg">
<circle cx="24" cy="24" r="24" fill="#E6F8F7"/>
<path d="M20.9096 32.67C20.7196 32.67 20.5296 32.6 20.3796 32.45C20.0896 32.16 20.0896 31.68 20.3796 31.39L26.8996 24.87C27.3796 24.39 27.3796 23.61 26.8996 23.13L20.3796 16.61C20.0896 16.32 20.0896 15.84 20.3796 15.55C20.6696 15.26 21.1496 15.26 21.4396 15.55L27.9596 22.07C28.4696 22.58 28.7596 23.27 28.7596 24C28.7596 24.73 28.4796 25.42 27.9596 25.93L21.4396 32.45C21.2896 32.59 21.0996 32.67 20.9096 32.67Z" fill="#313131"/>
</svg>
