<svg width="48" height="48" viewBox="0 0 48 48" fill="none" xmlns="http://www.w3.org/2000/svg">
<circle cx="24" cy="24" r="24" fill="#E6F8F7"/>
<rect width="24" height="24" transform="translate(12 12)" fill="#E6F8F7"/>
<path d="M27 32.67C26.81 32.67 26.62 32.6 26.47 32.45L19.95 25.93C18.89 24.87 18.89 23.13 19.95 22.07L26.47 15.55C26.76 15.26 27.24 15.26 27.53 15.55C27.82 15.84 27.82 16.32 27.53 16.61L21.01 23.13C20.53 23.61 20.53 24.39 21.01 24.87L27.53 31.39C27.82 31.68 27.82 32.16 27.53 32.45C27.38 32.59 27.19 32.67 27 32.67Z" fill="#313131"/>
</svg>
