<svg width="48" height="32" viewBox="0 0 48 32" fill="none" xmlns="http://www.w3.org/2000/svg">
<rect width="48" height="32" rx="2" fill="#016FD0"/>
<rect x="0.5" y="0.5" width="47" height="31" rx="1.5" stroke="black" stroke-opacity="0.2"/>
<path fill-rule="evenodd" clip-rule="evenodd" d="M47.538 23.7333V27.2106H43.122L41.49 25.3013L39.794 27.2106H27.25V17.0453H23.1113L28.2847 5.33331H33.3193L34.5353 7.98931V5.33331H40.786L41.8313 8.11732L42.8553 5.33331H47.538V6.98663H43.922L42.2793 11.3173L41.842 12.4906L39.7407 6.98663H36.1247V15.5199L32.37 6.98663H29.458L25.682 15.5199H28.1567L28.818 13.8773H32.9567L33.618 15.5199H36.1247H38.3007V9.96265L38.29 8.84263L38.7167 9.96265L40.7967 15.5199H42.866L44.9567 9.96265L45.362 8.85331V15.5199H47.538V18.8586L45.1273 21.2799L47.538 23.7333ZM28.9993 25.5573V17.0559H36.1247V18.9013H31.1753V20.3946H36.0287V22.2293H31.1753V23.7119H36.1247V25.5573H28.9993ZM46.8767 25.5573H44.05L41.4687 22.7839L38.8767 25.5573H36.1247L40.1033 21.3226L36.1247 17.0559H38.962L41.522 19.8186L44.0927 17.0559H46.8767L42.8873 21.2906L46.8767 25.5573Z" fill="white"/>
<path d="M30.8873 8.81064L30.4607 9.87733L29.5753 12.0319H32.1993L31.314 9.87733L30.8873 8.81064Z" fill="white"/>
</svg>
