<svg width="48" height="32" viewBox="0 0 48 32" fill="none" xmlns="http://www.w3.org/2000/svg">
<g clip-path="url(#clip0_1_2975)">
<rect width="48" height="32" rx="2" fill="#231F20"/>
<path d="M48.0001 21.3333C48.0001 21.3333 37.3255 28.6977 17.7778 32H48.0001V21.3333Z" fill="#F48120"/>
<path d="M5.42835 12.3563H3.55566V18.9166H5.42835C6.41837 18.9166 7.13405 18.6781 7.76623 18.1652C8.51769 17.5449 8.95902 16.6145 8.95902 15.6484C8.94709 13.7041 7.50381 12.3563 5.42835 12.3563ZM6.93127 17.2944C6.52572 17.6523 6.01282 17.8193 5.17786 17.8193H4.83195V13.4775H5.17786C6.00089 13.4775 6.50187 13.6206 6.93127 14.0023C7.37261 14.3959 7.63502 15.0043 7.63502 15.6364C7.63502 16.2686 7.37261 16.9008 6.93127 17.2944Z" fill="white"/>
<path d="M10.8197 12.3563H9.54346V18.9166H10.8197V12.3563Z" fill="white"/>
<path d="M13.9451 14.8731C13.1817 14.5868 12.9551 14.396 12.9551 14.0501C12.9551 13.6326 13.3606 13.3225 13.9093 13.3225C14.291 13.3225 14.6131 13.4775 14.9351 13.8592L15.6031 12.9885C15.0544 12.5114 14.3983 12.2609 13.6707 12.2609C12.5137 12.2609 11.6191 13.072 11.6191 14.1455C11.6191 15.052 12.0366 15.5172 13.2294 15.9466C13.7304 16.1255 13.9809 16.2448 14.1121 16.3164C14.3626 16.4834 14.4938 16.7219 14.4938 16.9963C14.4938 17.533 14.0763 17.9266 13.5038 17.9266C12.8954 17.9266 12.4064 17.6165 12.1082 17.0559L11.2852 17.8551C11.8696 18.7258 12.5853 19.1075 13.5515 19.1075C14.8755 19.1075 15.8178 18.2248 15.8178 16.9485C15.8416 15.887 15.4003 15.4098 13.9451 14.8731Z" fill="white"/>
<path d="M16.2354 15.6484C16.2354 17.5807 17.7502 19.0717 19.6945 19.0717C20.2431 19.0717 20.7203 18.9643 21.2928 18.69V17.1871C20.7799 17.7 20.3266 17.9028 19.7541 17.9028C18.4659 17.9028 17.5474 16.9724 17.5474 15.6365C17.5474 14.3721 18.4897 13.3821 19.6945 13.3821C20.3028 13.3821 20.768 13.5968 21.2928 14.1216V12.6187C20.7322 12.3324 20.267 12.2131 19.7183 12.2131C17.7979 12.2131 16.2354 13.7399 16.2354 15.6484Z" fill="white"/>
<path d="M31.4551 16.7696L29.7017 12.3563H28.3062L31.0854 19.0836H31.7772L34.6041 12.3563H33.2205L31.4551 16.7696Z" fill="white"/>
<path d="M35.1885 18.9166H38.8146V17.8073H36.4648V16.042H38.7311V14.9327H36.4648V13.4775H38.8146V12.3563H35.1885V18.9166Z" fill="white"/>
<path d="M43.8841 14.3005C43.8841 13.0719 43.0372 12.3682 41.5582 12.3682H39.6616V18.9285H40.9379V16.2925H41.1049L42.8702 18.9285H44.4447L42.3812 16.1612C43.3474 15.9585 43.8841 15.3024 43.8841 14.3005ZM41.3077 15.3859H40.9379V13.394H41.3315C42.1307 13.394 42.5601 13.7279 42.5601 14.3721C42.5601 15.0281 42.1307 15.3859 41.3077 15.3859Z" fill="white"/>
<path d="M25.2166 19.1552C27.1467 19.1552 28.7115 17.5905 28.7115 15.6603C28.7115 13.7301 27.1467 12.1654 25.2166 12.1654C23.2864 12.1654 21.7217 13.7301 21.7217 15.6603C21.7217 17.5905 23.2864 19.1552 25.2166 19.1552Z" fill="#F48120"/>
</g>
<rect x="0.5" y="0.5" width="47" height="31" rx="1.5" stroke="white" stroke-opacity="0.2"/>
<defs>
<clipPath id="clip0_1_2975">
<rect width="48" height="32" rx="2" fill="white"/>
</clipPath>
</defs>
</svg>
