<svg width="48" height="32" viewBox="0 0 48 32" fill="none" xmlns="http://www.w3.org/2000/svg">
<rect width="48" height="32" rx="2" fill="#252525"/>
<rect x="0.5" y="0.5" width="47" height="31" rx="1.5" stroke="white" stroke-opacity="0.2"/>
<path d="M19.9141 8.56372H28.0857V23.2468H19.9141V8.56372Z" fill="#FF5F00"/>
<path d="M20.4328 15.9052C20.4328 12.9219 21.8336 10.2758 23.9868 8.56369C22.4044 7.31848 20.4068 6.56616 18.2277 6.56616C13.0653 6.56616 8.88867 10.7428 8.88867 15.9052C8.88867 21.0676 13.0653 25.2443 18.2277 25.2443C20.4068 25.2443 22.4044 24.492 23.9868 23.2468C21.8336 21.5605 20.4328 18.8885 20.4328 15.9052Z" fill="#EB001B"/>
<path d="M39.1108 15.9052C39.1108 21.0676 34.9342 25.2443 29.7718 25.2443C27.5927 25.2443 25.5951 24.492 24.0127 23.2468C26.1918 21.5346 27.5667 18.8885 27.5667 15.9052C27.5667 12.9219 26.1659 10.2758 24.0127 8.56369C25.5951 7.31848 27.5927 6.56616 29.7718 6.56616C34.9342 6.56616 39.1108 10.7687 39.1108 15.9052Z" fill="#F79E1B"/>
</svg>
