<svg width="48" height="32" viewBox="0 0 48 32" fill="none" xmlns="http://www.w3.org/2000/svg">
<rect width="48" height="32" rx="2" fill="#1434CB"/>
<rect x="0.5" y="0.5" width="47" height="31" rx="1.5" stroke="black" stroke-opacity="0.2"/>
<path d="M29.6501 9.75293C26.9992 9.75293 24.6304 11.1269 24.6304 13.6654C24.6304 16.5766 28.8317 16.7777 28.8317 18.2402C28.8317 18.856 28.126 19.4072 26.9207 19.4072C25.2101 19.4072 23.9316 18.637 23.9316 18.637L23.3846 21.1986C23.3846 21.1986 24.8573 21.8492 26.8127 21.8492C29.7109 21.8492 31.9914 20.4078 31.9914 17.8259C31.9914 14.7497 27.7726 14.5546 27.7726 13.1971C27.7726 12.7147 28.3519 12.1862 29.5538 12.1862C30.9098 12.1862 32.0162 12.7464 32.0162 12.7464L32.5516 10.2723C32.5516 10.2723 31.3478 9.75293 29.6501 9.75293ZM5.39768 9.93966L5.3335 10.3131C5.3335 10.3131 6.4487 10.5172 7.45312 10.9243C8.74639 11.3912 8.83852 11.663 9.05633 12.5071L11.4298 21.6567H14.6114L19.5129 9.93966H16.3386L13.1891 17.9061L11.9039 11.1534C11.786 10.3805 11.189 9.93966 10.4582 9.93966H5.39768ZM20.7894 9.93966L18.2992 21.6567H21.3262L23.8076 9.93966H20.7894ZM37.6719 9.93966C36.942 9.93966 36.5553 10.3304 36.2715 11.0133L31.8368 21.6567H35.0111L35.6253 19.8828H39.4925L39.866 21.6567H42.6668L40.2234 9.93966H37.6719ZM38.0848 13.1052L39.0257 17.502H36.5049L38.0848 13.1052Z" fill="white"/>
</svg>
