<svg width="21" height="20" viewBox="0 0 21 20" fill="none" xmlns="http://www.w3.org/2000/svg">
<path d="M10.2503 18.9584C5.30866 18.9584 1.29199 14.9417 1.29199 10C1.29199 5.05835 5.30866 1.04169 10.2503 1.04169C15.192 1.04169 19.2087 5.05835 19.2087 10C19.2087 14.9417 15.192 18.9584 10.2503 18.9584ZM10.2503 2.29169C6.00033 2.29169 2.54199 5.75002 2.54199 10C2.54199 14.25 6.00033 17.7084 10.2503 17.7084C14.5003 17.7084 17.9587 14.25 17.9587 10C17.9587 5.75002 14.5003 2.29169 10.2503 2.29169Z" fill="#313131"/>
<path d="M13.3419 13.275C13.2335 13.275 13.1252 13.25 13.0252 13.1834L10.4419 11.6417C9.80019 11.2584 9.3252 10.4167 9.3252 9.67503V6.25836C9.3252 5.9167 9.60853 5.63336 9.9502 5.63336C10.2919 5.63336 10.5752 5.9167 10.5752 6.25836V9.67503C10.5752 9.97503 10.8252 10.4167 11.0835 10.5667L13.6669 12.1084C13.9669 12.2834 14.0585 12.6667 13.8835 12.9667C13.7585 13.1667 13.5502 13.275 13.3419 13.275Z" fill="#313131"/>
</svg>
