<svg width="32" height="32" viewBox="0 0 32 32" fill="none" xmlns="http://www.w3.org/2000/svg">
<path d="M22.6665 28.3334H9.33317C4.4665 28.3334 1.6665 25.5334 1.6665 20.6667V11.3334C1.6665 6.46675 4.4665 3.66675 9.33317 3.66675H22.6665C27.5332 3.66675 30.3332 6.46675 30.3332 11.3334V20.6667C30.3332 25.5334 27.5332 28.3334 22.6665 28.3334ZM9.33317 5.66675C5.51984 5.66675 3.6665 7.52008 3.6665 11.3334V20.6667C3.6665 24.4801 5.51984 26.3334 9.33317 26.3334H22.6665C26.4798 26.3334 28.3332 24.4801 28.3332 20.6667V11.3334C28.3332 7.52008 26.4798 5.66675 22.6665 5.66675H9.33317Z" fill="#313131"/>
<path d="M15.9999 17.16C14.8799 17.16 13.7465 16.8133 12.8799 16.1066L8.70653 12.7733C8.27987 12.4266 8.19987 11.8 8.54654 11.3733C8.8932 10.9466 9.51988 10.8666 9.94654 11.2133L14.1199 14.5466C15.1332 15.36 16.8532 15.36 17.8665 14.5466L22.0399 11.2133C22.4665 10.8666 23.1065 10.9333 23.4399 11.3733C23.7865 11.8 23.7199 12.44 23.2799 12.7733L19.1065 16.1066C18.2532 16.8133 17.1199 17.16 15.9999 17.16Z" fill="#313131"/>
</svg>
