<svg width="21" height="20" viewBox="0 0 21 20" fill="none" xmlns="http://www.w3.org/2000/svg">
<path d="M8.38314 9.68335C8.35814 9.68335 8.34147 9.68335 8.31647 9.68335C8.27481 9.67502 8.21647 9.67502 8.16647 9.68335C5.7498 9.60835 3.9248 7.70835 3.9248 5.36669C3.9248 2.98335 5.86647 1.04169 8.2498 1.04169C10.6331 1.04169 12.5748 2.98335 12.5748 5.36669C12.5665 7.70835 10.7331 9.60835 8.40814 9.68335C8.3998 9.68335 8.39147 9.68335 8.38314 9.68335ZM8.2498 2.29169C6.55814 2.29169 5.1748 3.67502 5.1748 5.36669C5.1748 7.03335 6.4748 8.37502 8.13314 8.43335C8.18314 8.42502 8.29147 8.42502 8.39981 8.43335C10.0331 8.35835 11.3165 7.01669 11.3248 5.36669C11.3248 3.67502 9.94147 2.29169 8.2498 2.29169Z" fill="#313131"/>
<path d="M14.533 9.79165C14.508 9.79165 14.483 9.79165 14.458 9.78331C14.1163 9.81665 13.7663 9.57498 13.733 9.23331C13.6996 8.89165 13.908 8.58331 14.2496 8.54165C14.3496 8.53331 14.458 8.53331 14.5496 8.53331C15.7663 8.46665 16.7163 7.46665 16.7163 6.24165C16.7163 4.97498 15.6913 3.94998 14.4246 3.94998C14.083 3.95831 13.7996 3.67498 13.7996 3.33331C13.7996 2.99165 14.083 2.70831 14.4246 2.70831C16.3746 2.70831 17.9663 4.29998 17.9663 6.24998C17.9663 8.16665 16.4663 9.71665 14.558 9.79165C14.5496 9.79165 14.5413 9.79165 14.533 9.79165Z" fill="#313131"/>
<path d="M8.39134 18.7916C6.75801 18.7916 5.11634 18.375 3.87467 17.5416C2.71634 16.775 2.08301 15.725 2.08301 14.5833C2.08301 13.4416 2.71634 12.3833 3.87467 11.6083C6.37467 9.94998 10.4247 9.94998 12.908 11.6083C14.058 12.375 14.6997 13.425 14.6997 14.5666C14.6997 15.7083 14.0663 16.7666 12.908 17.5416C11.658 18.375 10.0247 18.7916 8.39134 18.7916ZM4.56634 12.6583C3.76634 13.1916 3.33301 13.875 3.33301 14.5916C3.33301 15.3 3.77467 15.9833 4.56634 16.5083C6.64134 17.9 10.1413 17.9 12.2163 16.5083C13.0163 15.975 13.4497 15.2916 13.4497 14.575C13.4497 13.8666 13.008 13.1833 12.2163 12.6583C10.1413 11.275 6.64134 11.275 4.56634 12.6583Z" fill="#313131"/>
<path d="M16.0335 17.2917C15.7418 17.2917 15.4835 17.0917 15.4251 16.7917C15.3585 16.45 15.5751 16.125 15.9085 16.05C16.4335 15.9417 16.9168 15.7333 17.2918 15.4417C17.7668 15.0833 18.0251 14.6333 18.0251 14.1583C18.0251 13.6833 17.7668 13.2333 17.3001 12.8833C16.9335 12.6 16.4751 12.4 15.9335 12.275C15.6001 12.2 15.3835 11.8667 15.4585 11.525C15.5335 11.1917 15.8668 10.975 16.2085 11.05C16.9251 11.2083 17.5501 11.4917 18.0585 11.8833C18.8335 12.4667 19.2751 13.2917 19.2751 14.1583C19.2751 15.025 18.8251 15.85 18.0501 16.4417C17.5335 16.8417 16.8835 17.1333 16.1668 17.275C16.1168 17.2917 16.0751 17.2917 16.0335 17.2917Z" fill="#313131"/>
</svg>
