
<svg width="25" height="24" viewBox="0 0 25 24" fill="none" xmlns="http://www.w3.org/2000/svg">
<path d="M9.40961 20.67C9.21961 20.67 9.02961 20.6 8.87961 20.45C8.58961 20.16 8.58961 19.68 8.87961 19.39L15.3996 12.87C15.8796 12.39 15.8796 11.61 15.3996 11.13L8.87961 4.61002C8.58961 4.32002 8.58961 3.84002 8.87961 3.55002C9.16961 3.26002 9.64961 3.26002 9.93961 3.55002L16.4596 10.07C16.9696 10.58 17.2596 11.27 17.2596 12C17.2596 12.73 16.9796 13.42 16.4596 13.93L9.93961 20.45C9.78961 20.59 9.59961 20.67 9.40961 20.67Z" fill="#09B5AF"/>
</svg>
