<svg width="32" height="32" viewBox="0 0 32 32" fill="none" xmlns="http://www.w3.org/2000/svg">
<path d="M2.66685 30.3333C2.40018 30.3333 2.14681 30.2267 1.96015 30.04C1.70681 29.7867 1.60021 29.4133 1.69354 29.0667L3.37356 22.7867C2.25356 20.7067 1.66685 18.36 1.66685 15.9867C1.66685 8.07999 8.09352 1.65332 16.0002 1.65332C23.9068 1.65332 30.3335 8.07999 30.3335 15.9867C30.3335 23.8933 23.9068 30.32 16.0002 30.32C13.5869 30.32 11.2269 29.72 9.12022 28.5733L2.93353 30.2933C2.8402 30.32 2.76018 30.3333 2.66685 30.3333ZM9.25352 26.5067C9.42685 26.5067 9.60019 26.56 9.76019 26.64C11.6402 27.7467 13.8002 28.3333 16.0002 28.3333C22.8002 28.3333 28.3335 22.8 28.3335 16C28.3335 9.2 22.8002 3.66667 16.0002 3.66667C9.20018 3.66667 3.66685 9.2 3.66685 16C3.66685 18.1733 4.24017 20.2933 5.32017 22.16C5.4535 22.3867 5.49353 22.6667 5.42686 22.92L4.09353 27.9067L9.00018 26.5467C9.08018 26.52 9.17352 26.5067 9.25352 26.5067Z" fill="#313131"/>
<path d="M19.6532 23.6801C18.8265 23.6801 17.9732 23.4934 17.0798 23.1067C16.2398 22.7467 15.3998 22.2667 14.5865 21.6667C13.7865 21.0801 12.9999 20.4134 12.2799 19.6934C11.5599 18.96 10.8931 18.1867 10.3065 17.3867C9.70648 16.5467 9.22647 15.72 8.8798 14.9067C8.50647 14.0267 8.31982 13.1601 8.31982 12.3334C8.31982 11.7467 8.42646 11.1867 8.62646 10.6667C8.8398 10.1201 9.18648 9.62671 9.63981 9.20005C10.4931 8.36005 11.7199 8.05341 12.6932 8.52008C13.0265 8.66674 13.3065 8.90674 13.5199 9.22674L15.0665 11.4C15.2265 11.6134 15.3465 11.84 15.4399 12.0667C15.5465 12.3334 15.6132 12.6001 15.6132 12.8534C15.6132 13.2001 15.5198 13.5467 15.3332 13.8534C15.2132 14.0534 15.0398 14.2934 14.8132 14.5201L14.6398 14.7067C14.7198 14.8134 14.8131 14.9467 14.9598 15.1067C15.2398 15.4267 15.5465 15.7734 15.8798 16.1067C16.2131 16.4267 16.5465 16.7467 16.8798 17.0267C17.0398 17.16 17.1732 17.2667 17.2799 17.3334L17.4665 17.1467C17.7065 16.9067 17.9465 16.7201 18.1865 16.6001C18.6265 16.3201 19.3065 16.2534 19.9065 16.5067C20.1198 16.5867 20.3331 16.7067 20.5598 16.8667L22.7865 18.44C23.0932 18.6534 23.3332 18.9467 23.4932 19.28C23.6265 19.6134 23.6799 19.9067 23.6799 20.2134C23.6799 20.6134 23.5865 21.0001 23.4132 21.3734C23.2398 21.7201 23.0398 22.0267 22.7998 22.3067C22.3731 22.7734 21.8799 23.1201 21.3465 23.3467C20.8132 23.5734 20.2398 23.6801 19.6532 23.6801ZM11.7198 10.32C11.6398 10.32 11.3732 10.32 11.0399 10.6534C10.7865 10.8934 10.6132 11.1467 10.4932 11.4267C10.3732 11.7067 10.3198 12.0267 10.3198 12.3467C10.3198 12.9067 10.4531 13.5067 10.7198 14.1467C10.9998 14.8134 11.4132 15.5201 11.9198 16.2267C12.4398 16.9334 13.0265 17.6401 13.6799 18.2934C14.3332 18.9334 15.0265 19.5334 15.7465 20.0667C16.4398 20.5734 17.1465 20.9734 17.8532 21.28C18.8665 21.72 19.7998 21.8267 20.5598 21.5067C20.8265 21.4001 21.0665 21.2134 21.3065 20.9734C21.4265 20.8401 21.5199 20.7067 21.5999 20.5334C21.6399 20.44 21.6665 20.3334 21.6665 20.24C21.6665 20.2134 21.6665 20.1734 21.6265 20.0934L19.3998 18.5467C19.3065 18.4801 19.2131 18.4267 19.1331 18.4C19.0798 18.4267 18.9999 18.4667 18.8532 18.6134L18.3465 19.1201C17.9599 19.5067 17.3465 19.6134 16.8532 19.44L16.6132 19.3334C16.3065 19.1734 15.9598 18.9334 15.5732 18.6001C15.1998 18.2801 14.8399 17.9467 14.4532 17.5734C14.0799 17.1867 13.7465 16.8267 13.4265 16.4534C13.0798 16.0401 12.8399 15.7067 12.6799 15.4267L12.5332 15.0801C12.4932 14.9467 12.4798 14.8001 12.4798 14.6667C12.4798 14.2934 12.6132 13.96 12.8665 13.6934L13.3732 13.1734C13.5199 13.0267 13.5732 12.9467 13.5999 12.8934C13.5599 12.8001 13.5065 12.7201 13.4399 12.6267L11.8798 10.4267L11.7198 10.32Z" fill="#313131"/>
</svg>
