<svg width="20" height="20" viewBox="0 0 20 20" fill="none" xmlns="http://www.w3.org/2000/svg">
<path d="M10.0004 11.8083C8.22539 11.8083 6.77539 10.3666 6.77539 8.5833C6.77539 6.79997 8.22539 5.36664 10.0004 5.36664C11.7754 5.36664 13.2254 6.80831 13.2254 8.59164C13.2254 10.375 11.7754 11.8083 10.0004 11.8083ZM10.0004 6.61664C8.91706 6.61664 8.02539 7.49997 8.02539 8.59164C8.02539 9.6833 8.90872 10.5666 10.0004 10.5666C11.0921 10.5666 11.9754 9.6833 11.9754 8.59164C11.9754 7.49997 11.0837 6.61664 10.0004 6.61664Z" fill="#313131"/>
<path d="M10.0004 18.9667C8.76706 18.9667 7.52539 18.5 6.55872 17.575C4.10039 15.2084 1.38372 11.4334 2.40872 6.94169C3.33372 2.86669 6.89206 1.04169 10.0004 1.04169C10.0004 1.04169 10.0004 1.04169 10.0087 1.04169C13.1171 1.04169 16.6754 2.86669 17.6004 6.95002C18.6171 11.4417 15.9004 15.2084 13.4421 17.575C12.4754 18.5 11.2337 18.9667 10.0004 18.9667ZM10.0004 2.29169C7.57539 2.29169 4.45872 3.58335 3.63372 7.21669C2.73372 11.1417 5.20039 14.525 7.43372 16.6667C8.87539 18.0584 11.1337 18.0584 12.5754 16.6667C14.8004 14.525 17.2671 11.1417 16.3837 7.21669C15.5504 3.58335 12.4254 2.29169 10.0004 2.29169Z" fill="#313131"/>
</svg>
