<svg width="21" height="20" viewBox="0 0 21 20" fill="none" xmlns="http://www.w3.org/2000/svg">
<path d="M7.16699 4.79169C6.82533 4.79169 6.54199 4.50835 6.54199 4.16669V1.66669C6.54199 1.32502 6.82533 1.04169 7.16699 1.04169C7.50866 1.04169 7.79199 1.32502 7.79199 1.66669V4.16669C7.79199 4.50835 7.50866 4.79169 7.16699 4.79169Z" fill="#313131"/>
<path d="M13.833 4.79169C13.4913 4.79169 13.208 4.50835 13.208 4.16669V1.66669C13.208 1.32502 13.4913 1.04169 13.833 1.04169C14.1747 1.04169 14.458 1.32502 14.458 1.66669V4.16669C14.458 4.50835 14.1747 4.79169 13.833 4.79169Z" fill="#313131"/>
<path d="M7.58333 12.0833C7.475 12.0833 7.36667 12.0583 7.26667 12.0167C7.15833 11.975 7.075 11.9166 6.99167 11.8416C6.84167 11.6833 6.75 11.475 6.75 11.25C6.75 11.1416 6.775 11.0333 6.81667 10.9333C6.85833 10.8333 6.91667 10.7416 6.99167 10.6583C7.075 10.5833 7.15833 10.525 7.26667 10.4833C7.56667 10.3583 7.94167 10.425 8.175 10.6583C8.325 10.8166 8.41667 11.0333 8.41667 11.25C8.41667 11.3 8.40833 11.3583 8.4 11.4167C8.39167 11.4667 8.375 11.5166 8.35 11.5666C8.33333 11.6166 8.30833 11.6666 8.275 11.7166C8.25 11.7583 8.20833 11.8 8.175 11.8416C8.01667 11.9916 7.8 12.0833 7.58333 12.0833Z" fill="#313131"/>
<path d="M10.5003 12.0833C10.392 12.0833 10.2837 12.0584 10.1837 12.0167C10.0753 11.975 9.99199 11.9167 9.90866 11.8417C9.75866 11.6833 9.66699 11.475 9.66699 11.25C9.66699 11.1417 9.69199 11.0333 9.73366 10.9333C9.77533 10.8333 9.83366 10.7417 9.90866 10.6584C9.99199 10.5834 10.0753 10.525 10.1837 10.4833C10.4837 10.35 10.8587 10.425 11.092 10.6584C11.242 10.8167 11.3337 11.0333 11.3337 11.25C11.3337 11.3 11.3253 11.3584 11.317 11.4167C11.3087 11.4667 11.292 11.5167 11.267 11.5667C11.2503 11.6167 11.2253 11.6667 11.192 11.7167C11.167 11.7583 11.1253 11.8 11.092 11.8417C10.9337 11.9917 10.717 12.0833 10.5003 12.0833Z" fill="#313131"/>
<path d="M13.4163 12.0833C13.308 12.0833 13.1997 12.0584 13.0997 12.0167C12.9913 11.975 12.908 11.9167 12.8247 11.8417C12.7913 11.8 12.758 11.7583 12.7247 11.7167C12.6913 11.6667 12.6663 11.6167 12.6497 11.5667C12.6247 11.5167 12.608 11.4667 12.5997 11.4167C12.5913 11.3584 12.583 11.3 12.583 11.25C12.583 11.0333 12.6747 10.8167 12.8247 10.6584C12.908 10.5834 12.9913 10.525 13.0997 10.4833C13.408 10.35 13.7747 10.425 14.008 10.6584C14.158 10.8167 14.2497 11.0333 14.2497 11.25C14.2497 11.3 14.2413 11.3584 14.233 11.4167C14.2247 11.4667 14.208 11.5167 14.183 11.5667C14.1663 11.6167 14.1413 11.6667 14.108 11.7167C14.083 11.7583 14.0413 11.8 14.008 11.8417C13.8497 11.9917 13.633 12.0833 13.4163 12.0833Z" fill="#313131"/>
<path d="M7.58333 15C7.475 15 7.36667 14.975 7.26667 14.9333C7.16667 14.8917 7.075 14.8333 6.99167 14.7583C6.84167 14.6 6.75 14.3833 6.75 14.1667C6.75 14.0583 6.775 13.95 6.81667 13.85C6.85833 13.7417 6.91667 13.65 6.99167 13.575C7.3 13.2667 7.86667 13.2667 8.175 13.575C8.325 13.7333 8.41667 13.95 8.41667 14.1667C8.41667 14.3833 8.325 14.6 8.175 14.7583C8.01667 14.9083 7.8 15 7.58333 15Z" fill="#313131"/>
<path d="M10.5003 15C10.2837 15 10.067 14.9083 9.90866 14.7583C9.75866 14.6 9.66699 14.3833 9.66699 14.1667C9.66699 14.0583 9.69199 13.95 9.73366 13.85C9.77533 13.7417 9.83366 13.65 9.90866 13.575C10.217 13.2667 10.7837 13.2667 11.092 13.575C11.167 13.65 11.2253 13.7417 11.267 13.85C11.3087 13.95 11.3337 14.0583 11.3337 14.1667C11.3337 14.3833 11.242 14.6 11.092 14.7583C10.9337 14.9083 10.717 15 10.5003 15Z" fill="#313131"/>
<path d="M13.4163 15C13.1997 15 12.983 14.9084 12.8247 14.7584C12.7497 14.6834 12.6913 14.5917 12.6497 14.4834C12.608 14.3834 12.583 14.275 12.583 14.1667C12.583 14.0584 12.608 13.95 12.6497 13.85C12.6913 13.7417 12.7497 13.6501 12.8247 13.5751C13.0163 13.3834 13.308 13.2917 13.5747 13.35C13.633 13.3584 13.683 13.375 13.733 13.4C13.783 13.4167 13.833 13.4417 13.883 13.4751C13.9247 13.5001 13.9663 13.5417 14.008 13.5751C14.158 13.7334 14.2497 13.95 14.2497 14.1667C14.2497 14.3834 14.158 14.6 14.008 14.7584C13.8497 14.9084 13.633 15 13.4163 15Z" fill="#313131"/>
<path d="M17.5837 8.19995H3.41699C3.07533 8.19995 2.79199 7.91662 2.79199 7.57495C2.79199 7.23328 3.07533 6.94995 3.41699 6.94995H17.5837C17.9253 6.94995 18.2087 7.23328 18.2087 7.57495C18.2087 7.91662 17.9253 8.19995 17.5837 8.19995Z" fill="#313131"/>
<path d="M13.8333 18.9584H7.16667C4.125 18.9584 2.375 17.2084 2.375 14.1667V7.08335C2.375 4.04169 4.125 2.29169 7.16667 2.29169H13.8333C16.875 2.29169 18.625 4.04169 18.625 7.08335V14.1667C18.625 17.2084 16.875 18.9584 13.8333 18.9584ZM7.16667 3.54169C4.78333 3.54169 3.625 4.70002 3.625 7.08335V14.1667C3.625 16.55 4.78333 17.7084 7.16667 17.7084H13.8333C16.2167 17.7084 17.375 16.55 17.375 14.1667V7.08335C17.375 4.70002 16.2167 3.54169 13.8333 3.54169H7.16667Z" fill="#313131"/>
</svg>
