<svg width="20" height="20" viewBox="0 0 20 20" fill="none" xmlns="http://www.w3.org/2000/svg">
<path d="M3.27477 13.8583C3.11644 13.8583 2.95811 13.8 2.83311 13.675C2.59144 13.4333 2.59144 13.0333 2.83311 12.7917L12.7914 2.83335C13.0331 2.59168 13.4331 2.59168 13.6748 2.83335C13.9164 3.07502 13.9164 3.47502 13.6748 3.71668L3.71644 13.6833C3.59977 13.8 3.43311 13.8583 3.27477 13.8583Z" fill="#313131"/>
<path d="M9.24987 15.8584C9.09154 15.8584 8.9332 15.8001 8.8082 15.6751C8.56654 15.4334 8.56654 15.0334 8.8082 14.7917L9.8082 13.7917C10.0499 13.5501 10.4499 13.5501 10.6915 13.7917C10.9332 14.0334 10.9332 14.4334 10.6915 14.6751L9.69154 15.6751C9.57487 15.7917 9.41654 15.8584 9.24987 15.8584Z" fill="#313131"/>
<path d="M11.4916 13.6167C11.3332 13.6167 11.1749 13.5583 11.0499 13.4333C10.8082 13.1917 10.8082 12.7917 11.0499 12.55L13.0416 10.5583C13.2832 10.3167 13.6832 10.3167 13.9249 10.5583C14.1666 10.8 14.1666 11.2 13.9249 11.4417L11.9332 13.4333C11.8166 13.55 11.6499 13.6167 11.4916 13.6167Z" fill="#313131"/>
<path d="M9.25009 18.9583C8.43343 18.9583 7.61676 18.4583 6.62509 17.4666L2.53342 13.375C0.541758 11.3833 0.550091 10.1 2.55842 8.09164L8.09176 2.5583C10.1001 0.549969 11.3834 0.541636 13.3751 2.5333L17.4668 6.62497C19.4584 8.61664 19.4501 9.89997 17.4418 11.9083L11.9084 17.4416C10.9001 18.45 10.0751 18.9583 9.25009 18.9583ZM10.7501 2.29164C10.3168 2.29164 9.76676 2.64997 8.97509 3.44164L3.44176 8.97497C2.65009 9.76664 2.29176 10.3166 2.29176 10.7416C2.29176 11.175 2.62509 11.7 3.41676 12.4916L7.50843 16.5833C8.30009 17.375 8.81676 17.7083 9.25009 17.7083C9.25009 17.7083 9.25009 17.7083 9.25842 17.7083C9.69176 17.7083 10.2334 17.35 11.0251 16.5583L16.5584 11.025C17.3501 10.2333 17.7084 9.6833 17.7084 9.2583C17.7084 8.82497 17.3751 8.29997 16.5834 7.5083L12.4918 3.41664C11.7084 2.62497 11.1834 2.29164 10.7501 2.29164Z" fill="#313131"/>
<path d="M18.3332 18.9584H1.6665C1.32484 18.9584 1.0415 18.675 1.0415 18.3334C1.0415 17.9917 1.32484 17.7084 1.6665 17.7084H18.3332C18.6748 17.7084 18.9582 17.9917 18.9582 18.3334C18.9582 18.675 18.6748 18.9584 18.3332 18.9584Z" fill="#313131"/>
</svg>
